<svg width="21" height="21" viewBox="0 0 21 21" fill="none" xmlns="http://www.w3.org/2000/svg">
<g clip-path="url(#clip0_946_1572)">
<path d="M10.5 21.0597C4.70988 21.0597 0 16.3498 0 10.5597C0 4.76957 4.70988 0.0596924 10.5 0.0596924C16.2901 0.0596924 21 4.76957 21 10.5597C21 16.3498 16.2901 21.0597 10.5 21.0597ZM10.5 1.73969C5.6364 1.73969 1.68 5.69609 1.68 10.5597C1.68 15.4233 5.6364 19.3797 10.5 19.3797C15.3636 19.3797 19.32 15.4225 19.32 10.5597C19.32 5.69693 15.3636 1.73969 10.5 1.73969Z" fill="#FE724C"/>
<path d="M10.5002 16.4397C10.2774 16.4397 10.0637 16.3512 9.90619 16.1937C9.74866 16.0361 9.66016 15.8225 9.66016 15.5997V5.51969C9.66016 5.29691 9.74866 5.08325 9.90619 4.92572C10.0637 4.76819 10.2774 4.67969 10.5002 4.67969C10.7229 4.67969 10.9366 4.76819 11.0941 4.92572C11.2517 5.08325 11.3402 5.29691 11.3402 5.51969V15.5997C11.3402 15.8225 11.2517 16.0361 11.0941 16.1937C10.9366 16.3512 10.7229 16.4397 10.5002 16.4397Z" fill="#FE724C"/>
<path d="M15.5401 11.3997H5.46012C5.23734 11.3997 5.02368 11.3112 4.86615 11.1536C4.70862 10.9961 4.62012 10.7824 4.62012 10.5597C4.62012 10.3369 4.70862 10.1232 4.86615 9.9657C5.02368 9.80817 5.23734 9.71967 5.46012 9.71967H15.5401C15.7629 9.71967 15.9766 9.80817 16.1341 9.9657C16.2916 10.1232 16.3801 10.3369 16.3801 10.5597C16.3801 10.7824 16.2916 10.9961 16.1341 11.1536C15.9766 11.3112 15.7629 11.3997 15.5401 11.3997Z" fill="#FE724C"/>
</g>
<defs>
<clipPath id="clip0_946_1572">
<rect width="21" height="21" fill="white"/>
</clipPath>
</defs>
</svg>
