<svg width="111" height="26" viewBox="0 0 111 26" fill="none" xmlns="http://www.w3.org/2000/svg">
<path fill-rule="evenodd" clip-rule="evenodd" d="M1.5234 1.65407C2.81791 0.653199 5.0591 0.0646836 7.77184 0.013268C7.97037 0.0094903 8.22651 0.00385153 8.34104 0.000712708C8.70603 -0.00928709 12.7643 0.0884887 13.8804 0.134182C16.5415 0.243124 18.9234 0.52698 20.4022 0.911416C21.3506 1.15794 21.9119 1.58879 22.2927 2.36266C22.5996 2.98621 22.7039 3.56811 22.8066 5.23036C23.1943 11.5013 23.2369 12.4368 23.1951 13.758C23.1312 15.7788 22.9453 17.519 22.5674 19.6328C22.3131 21.0556 22.0833 21.6192 21.5546 22.1168C21.1561 22.4918 20.6908 22.6549 19.8084 22.7291C19.272 22.7742 18.0689 22.8361 16.7264 22.8876C15.5851 22.9315 12.219 22.9316 11.0343 22.8879C8.76014 22.804 6.75302 22.6712 4.88417 22.4809C4.17697 22.4089 4.06041 22.3997 3.27374 22.3539C1.78765 22.2674 1.00865 22.0496 0.555366 21.5941C0.247524 21.2847 0.154396 21.0078 0.133933 20.3412C0.126436 20.0967 0.108138 17.5468 0.0932279 14.6746C0.0783453 11.8024 0.0523564 8.87125 0.0355301 8.16085C-0.0153928 6.0147 -0.0116721 4.84614 0.0473029 4.45259C0.242193 3.15248 0.694501 2.29494 1.5234 1.65407ZM23.9767 9.41083C23.7245 5.24794 23.7068 5.04197 23.5492 4.41787C23.5135 4.27654 23.4884 4.16093 23.4935 4.16093C23.4985 4.16093 23.5867 4.20327 23.6894 4.25501C24.5127 4.66978 25.0264 5.52205 25.2064 6.77199C25.2709 7.21979 25.2929 7.53539 25.4859 10.7719C25.5848 12.4295 25.6804 14.017 25.6983 14.2996C25.7407 14.9655 25.741 16.9346 25.6989 17.6468C25.5876 19.5288 25.3811 21.2133 25.0409 23.0125C24.7494 24.5545 24.2782 25.2938 23.3857 25.6098C22.9865 25.7511 22.6354 25.7948 21.3088 25.8681C19.4507 25.9707 18.4172 25.999 16.4904 26C13.1286 26.0017 10.1295 25.8521 7.13322 25.5334C6.91942 25.5106 6.42405 25.474 6.03238 25.4519C4.67818 25.3756 4.03828 25.2561 3.51745 24.982C3.01271 24.7163 2.76415 24.3818 2.6783 23.8525C2.66242 23.7546 2.64934 23.6351 2.64923 23.5871L2.64901 23.4998L2.76679 23.5263C3.04081 23.5878 3.61213 23.6585 4.06508 23.6868C5.09017 23.751 5.35517 23.7714 6.21694 23.8527C9.59973 24.1718 12.4554 24.2961 15.6157 24.2616C18.0715 24.2349 20.6435 24.1202 21.3116 24.0076C22.0146 23.8891 22.5129 23.596 22.854 23.1002C23.0208 22.8577 23.0551 22.7926 23.1842 22.4738C23.3085 22.1668 23.4197 21.7391 23.5266 21.1569C24.0161 18.4916 24.2167 16.272 24.1881 13.8376C24.1763 12.8251 24.149 12.2525 23.9767 9.41083ZM8.45625 5.07941C8.17709 4.71151 7.6886 4.38862 7.25817 4.28749C7.05675 4.24015 6.42996 4.23274 6.24471 4.27546C5.547 4.43643 4.94767 4.97267 4.68073 5.67479C4.55337 6.00978 4.52716 6.56002 4.62103 6.92727C4.82381 7.72053 5.4358 8.32876 6.22963 8.52601C6.54519 8.60443 7.09385 8.58993 7.36923 8.4959C8.06572 8.25805 8.57164 7.76256 8.80327 7.09143C8.86968 6.89896 8.8814 6.81621 8.89076 6.47333C8.90064 6.11195 8.89531 6.05562 8.82975 5.82698C8.73907 5.51066 8.65338 5.33919 8.45625 5.07941ZM18.253 4.93003C17.9515 4.60704 17.5722 4.38037 17.1706 4.28321C16.9377 4.22685 16.34 4.23577 16.0981 4.29924C15.3458 4.49654 14.7569 5.09711 14.5448 5.88318C14.4718 6.15378 14.4784 6.68935 14.5583 6.98032C14.7204 7.57034 15.1664 8.1071 15.7133 8.37024C16.5618 8.77853 17.6229 8.58193 18.2447 7.90127C18.6701 7.43564 18.8598 6.91102 18.8284 6.28733C18.8014 5.75312 18.6184 5.32147 18.253 4.93003ZM8.82534 15.893C8.61012 15.147 8.0186 14.5711 7.27455 14.3829C6.9772 14.3078 6.46798 14.3083 6.1784 14.3842C5.53745 14.5521 5.03436 14.9839 4.74593 15.6137C4.62095 15.8866 4.56486 16.1593 4.56486 16.494C4.56486 16.8653 4.62303 17.1133 4.79274 17.4655C4.91819 17.7259 4.96103 17.7843 5.2001 18.0211C5.51019 18.3281 5.75891 18.4747 6.17052 18.5928C6.40778 18.6609 6.45915 18.6659 6.80866 18.6546C7.10759 18.6449 7.22729 18.6289 7.36923 18.5798C8.10956 18.3237 8.62001 17.8029 8.82528 17.0943C8.92738 16.7418 8.92741 16.2467 8.82534 15.893ZM18.2446 15.0045C17.9468 14.6849 17.6154 14.4861 17.2056 14.3813C17.0481 14.3409 16.9107 14.3283 16.6595 14.3312C16.2707 14.3356 16.2451 14.3389 16.0045 14.4161C15.2876 14.6461 14.7586 15.1995 14.557 15.9302C14.4721 16.2375 14.4726 16.7523 14.5581 17.0619C14.6812 17.508 14.9419 17.9048 15.2981 18.188C15.7065 18.5126 16.132 18.6606 16.657 18.6606C17.299 18.6606 17.846 18.4219 18.271 17.9562C18.6746 17.5139 18.8601 16.991 18.8288 16.3842C18.801 15.8453 18.612 15.3988 18.2446 15.0045ZM11.475 13.6753C12.6741 13.6753 13.6462 12.7032 13.6462 11.5041C13.6462 10.305 12.6741 9.33297 11.475 9.33297C10.2759 9.33297 9.30385 10.305 9.30385 11.5041C9.30385 12.7032 10.2759 13.6753 11.475 13.6753Z" fill="white"/>
<path d="M34.255 15.0576V20.8874C34.0546 20.9402 33.7357 20.9929 33.2984 21.0457C32.8611 21.0985 32.433 21.1248 32.0139 21.1248C31.5948 21.1248 31.2213 21.0897 30.8933 21.0193C30.5836 20.9666 30.3194 20.861 30.1008 20.7028C29.8821 20.5445 29.7181 20.3247 29.6088 20.0433C29.4995 19.7619 29.4448 19.3926 29.4448 18.9354V5.00702C29.6452 4.97185 29.9641 4.92788 30.4014 4.87512C30.8387 4.80478 31.2577 4.76961 31.6586 4.76961C32.0777 4.76961 32.4421 4.80478 32.7518 4.87512C33.0798 4.92788 33.3531 5.0334 33.5717 5.19168C33.7904 5.34995 33.9544 5.56978 34.0637 5.85116C34.173 6.13254 34.2277 6.50185 34.2277 6.9591V11.1534L39.9124 4.84874C41.1514 4.84874 42.0351 5.07736 42.5635 5.53461C43.1101 5.97426 43.3834 6.50185 43.3834 7.11737C43.3834 7.57462 43.2649 8.00548 43.0281 8.40996C42.7912 8.81445 42.4086 9.27169 41.8802 9.78169L38.4639 13.0791C38.9194 13.5715 39.3931 14.0815 39.8851 14.6091C40.3952 15.1367 40.8872 15.6555 41.3609 16.1655C41.8529 16.6579 42.3175 17.1328 42.7548 17.59C43.2103 18.0472 43.602 18.4429 43.93 18.7771C43.93 19.164 43.8571 19.5069 43.7113 19.8059C43.5656 20.1048 43.3651 20.3598 43.1101 20.5709C42.8732 20.7819 42.5999 20.9402 42.2902 21.0457C41.9804 21.1512 41.6524 21.204 41.3063 21.204C40.5592 21.204 39.9488 21.0281 39.4751 20.6764C39.0014 20.3071 38.5459 19.8762 38.1086 19.3838L34.255 15.0576Z" fill="white"/>
<path d="M49.4221 5.48185C49.7319 5.30599 50.1965 5.13892 50.816 4.98064C51.4537 4.82236 52.0914 4.74323 52.7291 4.74323C53.6401 4.74323 54.4418 4.87512 55.1342 5.13892C55.8448 5.38513 56.3003 5.78082 56.5007 6.32599C56.8287 7.24048 57.184 8.30445 57.5666 9.5179C57.9492 10.7314 58.3319 11.9888 58.7145 13.2902C59.0971 14.574 59.4706 15.849 59.835 17.1152C60.1994 18.3638 60.5183 19.4717 60.7916 20.439C60.573 20.6852 60.245 20.8786 59.8077 21.0193C59.3704 21.1776 58.8511 21.2567 58.2499 21.2567C57.8126 21.2567 57.4391 21.2216 57.1293 21.1512C56.8378 21.0809 56.5918 20.9754 56.3914 20.8347C56.2092 20.694 56.0543 20.5093 55.9268 20.2807C55.8175 20.0521 55.7172 19.7883 55.6261 19.4893L55.1342 17.6691H50.1874C50.0416 18.1967 49.8959 18.7419 49.7501 19.3047C49.6043 19.8674 49.4586 20.4126 49.3128 20.9402C49.0577 21.0281 48.7844 21.0985 48.4929 21.1512C48.2196 21.2216 47.8825 21.2567 47.4817 21.2567C46.5524 21.2567 45.8601 21.1073 45.4045 20.8083C44.9673 20.4917 44.7486 20.0609 44.7486 19.5157C44.7486 19.2695 44.7851 19.0233 44.8579 18.7771C44.9308 18.5309 45.0128 18.2407 45.1039 17.9066C45.2315 17.4317 45.4045 16.8426 45.6232 16.1391C45.8601 15.4357 46.1151 14.6795 46.3884 13.8705C46.6617 13.0439 46.9533 12.1998 47.263 11.3381C47.5728 10.4764 47.8643 9.66738 48.1376 8.91117C48.4109 8.13738 48.6569 7.45151 48.8755 6.85358C49.1124 6.25565 49.2946 5.7984 49.4221 5.48185ZM52.7018 8.88479C52.4467 9.62342 52.1552 10.45 51.8272 11.3645C51.5175 12.2614 51.235 13.1758 50.98 14.1079H54.3689C54.1139 13.1583 53.8497 12.235 53.5764 11.3381C53.3213 10.4236 53.0844 9.60583 52.8658 8.88479H52.7018Z" fill="white"/>
<path d="M67.1583 15.0576V20.8874C66.9579 20.9402 66.639 20.9929 66.2018 21.0457C65.7645 21.0985 65.3363 21.1248 64.9172 21.1248C64.4982 21.1248 64.1246 21.0897 63.7967 21.0193C63.4869 20.9666 63.2227 20.861 63.0041 20.7028C62.7854 20.5445 62.6215 20.3247 62.5121 20.0433C62.4028 19.7619 62.3482 19.3926 62.3482 18.9354V5.00702C62.5486 4.97185 62.8674 4.92788 63.3047 4.87512C63.742 4.80478 64.1611 4.76961 64.5619 4.76961C64.981 4.76961 65.3454 4.80478 65.6551 4.87512C65.9831 4.92788 66.2564 5.0334 66.4751 5.19168C66.6937 5.34995 66.8577 5.56978 66.967 5.85116C67.0763 6.13254 67.131 6.50185 67.131 6.9591V11.1534L72.8157 4.84874C74.0547 4.84874 74.9384 5.07736 75.4668 5.53461C76.0134 5.97426 76.2867 6.50185 76.2867 7.11737C76.2867 7.57462 76.1683 8.00548 75.9314 8.40996C75.6945 8.81445 75.3119 9.27169 74.7835 9.78169L71.3672 13.0791C71.8227 13.5715 72.2965 14.0815 72.7884 14.6091C73.2986 15.1367 73.7905 15.6555 74.2643 16.1655C74.7562 16.6579 75.2208 17.1328 75.6581 17.59C76.1136 18.0472 76.5053 18.4429 76.8333 18.7771C76.8333 19.164 76.7604 19.5069 76.6147 19.8059C76.4689 20.1048 76.2685 20.3598 76.0134 20.5709C75.7765 20.7819 75.5032 20.9402 75.1935 21.0457C74.8837 21.1512 74.5558 21.204 74.2096 21.204C73.4626 21.204 72.8522 21.0281 72.3784 20.6764C71.9047 20.3071 71.4492 19.8762 71.0119 19.3838L67.1583 15.0576Z" fill="white"/>
<path d="M82.3255 5.48185C82.6352 5.30599 83.0998 5.13892 83.7193 4.98064C84.357 4.82236 84.9947 4.74323 85.6324 4.74323C86.5435 4.74323 87.3452 4.87512 88.0375 5.13892C88.7481 5.38513 89.2036 5.78082 89.404 6.32599C89.732 7.24048 90.0873 8.30445 90.4699 9.5179C90.8526 10.7314 91.2352 11.9888 91.6178 13.2902C92.0004 14.574 92.374 15.849 92.7384 17.1152C93.1028 18.3638 93.4216 19.4717 93.6949 20.439C93.4763 20.6852 93.1483 20.8786 92.711 21.0193C92.2738 21.1776 91.7545 21.2567 91.1532 21.2567C90.7159 21.2567 90.3424 21.2216 90.0327 21.1512C89.7411 21.0809 89.4952 20.9754 89.2947 20.8347C89.1125 20.694 88.9577 20.5093 88.8301 20.2807C88.7208 20.0521 88.6206 19.7883 88.5295 19.4893L88.0375 17.6691H83.0907C82.945 18.1967 82.7992 18.7419 82.6534 19.3047C82.5077 19.8674 82.3619 20.4126 82.2161 20.9402C81.9611 21.0281 81.6877 21.0985 81.3962 21.1512C81.1229 21.2216 80.7858 21.2567 80.385 21.2567C79.4558 21.2567 78.7634 21.1073 78.3079 20.8083C77.8706 20.4917 77.6519 20.0609 77.6519 19.5157C77.6519 19.2695 77.6884 19.0233 77.7613 18.7771C77.8341 18.5309 77.9161 18.2407 78.0072 17.9066C78.1348 17.4317 78.3079 16.8426 78.5265 16.1391C78.7634 15.4357 79.0185 14.6795 79.2918 13.8705C79.5651 13.0439 79.8566 12.1998 80.1664 11.3381C80.4761 10.4764 80.7676 9.66738 81.0409 8.91117C81.3142 8.13738 81.5602 7.45151 81.7788 6.85358C82.0157 6.25565 82.1979 5.7984 82.3255 5.48185ZM85.6051 8.88479C85.35 9.62342 85.0585 10.45 84.7305 11.3645C84.4208 12.2614 84.1384 13.1758 83.8833 14.1079H87.2723C87.0172 13.1583 86.753 12.235 86.4797 11.3381C86.2246 10.4236 85.9877 9.60583 85.7691 8.88479H85.6051Z" fill="white"/>
<path d="M110.256 20.439C110.001 20.6852 109.627 20.8698 109.135 20.9929C108.662 21.1336 108.088 21.204 107.414 21.204C106.739 21.204 106.102 21.1073 105.5 20.9138C104.899 20.7204 104.407 20.2543 104.025 19.5157L101.319 14.1871C101.046 13.6419 100.8 13.1319 100.581 12.657C100.362 12.1646 100.125 11.6019 99.8703 10.9688L99.7064 10.9951C99.7792 11.9448 99.8157 12.9121 99.8157 13.8969C99.8339 14.8817 99.843 15.849 99.843 16.7986V20.8874C99.6426 20.9402 99.3328 20.9929 98.9138 21.0457C98.5129 21.0985 98.1121 21.1248 97.7112 21.1248C97.3104 21.1248 96.9551 21.0985 96.6453 21.0457C96.3356 20.9929 96.0805 20.8874 95.8801 20.7292C95.6797 20.5709 95.5248 20.3598 95.4155 20.096C95.3062 19.8147 95.2515 19.4541 95.2515 19.0145V5.82478C95.5066 5.47306 95.8983 5.20926 96.4267 5.0334C96.9551 4.85754 97.5199 4.76961 98.1212 4.76961C98.7953 4.76961 99.4331 4.87512 100.034 5.08616C100.654 5.27961 101.146 5.73685 101.51 6.45789L104.243 11.7865C104.517 12.3317 104.763 12.8505 104.981 13.3429C105.2 13.8177 105.437 14.3717 105.692 15.0048L105.828 14.9784C105.756 14.0288 105.71 13.0791 105.692 12.1295C105.674 11.1798 105.664 10.2301 105.664 9.28048V5.00702C105.865 4.95426 106.165 4.9015 106.566 4.84874C106.985 4.79598 107.395 4.76961 107.796 4.76961C108.598 4.76961 109.208 4.9103 109.627 5.19168C110.046 5.45547 110.256 6.01823 110.256 6.87996V20.439Z" fill="white"/>
</svg>
