<svg width="21" height="19" viewBox="0 0 21 19" fill="none" xmlns="http://www.w3.org/2000/svg">
<path d="M19.0679 2.15003C17.9549 1.0341 16.4794 0.352994 14.9082 0.229756C13.3369 0.106517 11.7733 0.549266 10.4999 1.47803C9.16394 0.484347 7.50109 0.033764 5.84622 0.217016C4.19134 0.400269 2.66736 1.20374 1.58117 2.46564C0.494981 3.72754 -0.0727379 5.35412 -0.00766014 7.01784C0.0574176 8.68156 0.750458 10.2588 1.9319 11.432L8.4524 17.963C8.99842 18.5004 9.7338 18.8016 10.4999 18.8016C11.266 18.8016 12.0014 18.5004 12.5474 17.963L19.0679 11.432C20.2939 10.1986 20.982 8.53012 20.982 6.79103C20.982 5.05194 20.2939 3.3835 19.0679 2.15003ZM17.5874 9.98303L11.0669 16.5035C10.9927 16.5784 10.9044 16.6379 10.8071 16.6785C10.7097 16.7191 10.6053 16.74 10.4999 16.74C10.3945 16.74 10.2901 16.7191 10.1927 16.6785C10.0954 16.6379 10.0071 16.5784 9.9329 16.5035L3.4124 9.95153C2.58894 9.10979 2.12784 7.97907 2.12784 6.80153C2.12784 5.62399 2.58894 4.49326 3.4124 3.65153C4.25151 2.82306 5.38322 2.35852 6.5624 2.35852C7.74158 2.35852 8.87329 2.82306 9.7124 3.65153C9.81001 3.74994 9.92614 3.82806 10.0541 3.88136C10.182 3.93467 10.3193 3.96212 10.4579 3.96212C10.5965 3.96212 10.7338 3.93467 10.8617 3.88136C10.9897 3.82806 11.1058 3.74994 11.2034 3.65153C12.0425 2.82306 13.1742 2.35852 14.3534 2.35852C15.5326 2.35852 16.6643 2.82306 17.5034 3.65153C18.3382 4.48223 18.8144 5.60683 18.8301 6.7844C18.8458 7.96197 18.3997 9.09886 17.5874 9.95153V9.98303Z" fill="#FE724C"/>
</svg>
