<svg width="21" height="21" viewBox="0 0 21 21" fill="none" xmlns="http://www.w3.org/2000/svg">
<g clip-path="url(#clip0_946_1570)">
<path d="M19.0679 3.15003C17.9549 2.0341 16.4794 1.35299 14.9082 1.22976C13.3369 1.10652 11.7733 1.54927 10.4999 2.47803C9.16394 1.48435 7.50109 1.03376 5.84622 1.21702C4.19134 1.40027 2.66736 2.20374 1.58117 3.46564C0.494981 4.72754 -0.0727379 6.35412 -0.00766014 8.01784C0.0574176 9.68156 0.750458 11.2588 1.9319 12.432L8.4524 18.963C8.99842 19.5004 9.7338 19.8016 10.4999 19.8016C11.266 19.8016 12.0014 19.5004 12.5474 18.963L19.0679 12.432C20.2939 11.1986 20.982 9.53012 20.982 7.79103C20.982 6.05194 20.2939 4.3835 19.0679 3.15003ZM17.5874 10.983L11.0669 17.5035C10.9927 17.5784 10.9044 17.6379 10.8071 17.6785C10.7097 17.7191 10.6053 17.74 10.4999 17.74C10.3945 17.74 10.2901 17.7191 10.1927 17.6785C10.0954 17.6379 10.0071 17.5784 9.9329 17.5035L3.4124 10.9515C2.58894 10.1098 2.12784 8.97907 2.12784 7.80153C2.12784 6.62399 2.58894 5.49326 3.4124 4.65153C4.25151 3.82306 5.38322 3.35852 6.5624 3.35852C7.74158 3.35852 8.87329 3.82306 9.7124 4.65153C9.81001 4.74994 9.92614 4.82806 10.0541 4.88136C10.182 4.93467 10.3193 4.96212 10.4579 4.96212C10.5965 4.96212 10.7338 4.93467 10.8617 4.88136C10.9897 4.82806 11.1058 4.74994 11.2034 4.65153C12.0425 3.82306 13.1742 3.35852 14.3534 3.35852C15.5326 3.35852 16.6643 3.82306 17.5034 4.65153C18.3382 5.48223 18.8144 6.60683 18.8301 7.7844C18.8458 8.96197 18.3997 10.0989 17.5874 10.9515V10.983Z" fill="#FE724C"/>
</g>
<defs>
<clipPath id="clip0_946_1570">
<rect width="21" height="21" fill="white"/>
</clipPath>
</defs>
</svg>
