<svg width="21" height="21" viewBox="0 0 21 21" fill="none" xmlns="http://www.w3.org/2000/svg">
<path d="M10.0713 0.916762C11.385 0.914569 12.6862 1.1718 13.9002 1.67368C15.1142 2.17556 16.2171 2.91221 17.1456 3.84135C21.0465 7.74132 21.0465 14.0866 17.1456 17.9866C15.256 19.8757 12.7437 20.9167 10.0713 20.9167C7.39891 20.9167 4.88661 19.8765 2.99698 17.9866C-0.903939 14.0866 -0.903939 7.74132 2.99698 3.84135C3.92547 2.91221 5.02838 2.17556 6.24238 1.67368C7.45639 1.1718 8.75759 0.914569 10.0713 0.916762ZM16.0139 4.97277C12.7373 1.69692 7.40532 1.69692 4.12867 4.97277C2.54158 6.56029 1.66759 8.67031 1.66759 10.914C1.66759 13.1576 2.54158 15.2676 4.12868 16.8551C5.71577 18.4427 7.8263 19.3164 10.0713 19.3164C12.3163 19.3164 14.426 18.4419 16.0139 16.8551C17.6018 15.2684 18.475 13.1584 18.475 10.914C18.475 8.66951 17.601 6.56029 16.0139 4.97277Z" fill="#FE724C"/>
<path d="M8.94685 6.43902C9.05196 6.43892 9.15606 6.45957 9.25317 6.4998C9.35028 6.54004 9.43847 6.59906 9.5127 6.67347L13.1911 10.351C13.2655 10.4252 13.3245 10.5134 13.3648 10.6105C13.4051 10.7076 13.4258 10.8116 13.4258 10.9167C13.4258 11.0218 13.4051 11.1259 13.3648 11.2229C13.3245 11.32 13.2655 11.4082 13.1911 11.4824L9.5127 15.16C9.43839 15.2343 9.35017 15.2932 9.25308 15.3334C9.156 15.3736 9.05194 15.3943 8.94685 15.3943C8.84176 15.3943 8.7377 15.3736 8.64061 15.3334C8.54353 15.2932 8.45531 15.2343 8.381 15.16C8.30669 15.0857 8.24775 14.9975 8.20753 14.9004C8.16732 14.8033 8.14662 14.6993 8.14662 14.5942C8.14662 14.4892 8.16732 14.3852 8.20753 14.2881C8.24775 14.191 8.30669 14.1028 8.381 14.0285L11.4936 10.9167L8.381 7.8049C8.26871 7.69314 8.19216 7.55056 8.16107 7.39523C8.12998 7.23991 8.14575 7.07885 8.20638 6.9325C8.26701 6.78616 8.36976 6.66112 8.5016 6.57326C8.63343 6.48539 8.78841 6.43867 8.94685 6.43902Z" fill="#FE724C"/>
</svg>
